<svg xmlns="http://www.w3.org/2000/svg" width="117" height="117" viewBox="0 0 117 117" fill="none">
    <g clip-path="url(#clip0_20_534)">
        <path opacity="0.5" d="M95.5759 28.8658V51.8001H70.9801V77.6659H46.2064V64.5498C46.2064 64.5498 45.7481 56.7523 56.1159 54.2735C66.4836 51.8001 71.7187 38.7972 71.7187 38.7972C71.7187 38.7972 72.8186 30.0621 81.2616 28.8658H95.5759Z" fill="#EBF2F3"/>
        <path d="M70.247 3V28.8658C70.247 28.8658 69.7887 49.6446 50.0614 51.8001H20.8774V28.8658H46.2065V3H70.247Z" fill="white"/>
        <path d="M62.2136 114.169C62.2136 114.169 81.8978 63.8115 95.1123 59.7538C95.1123 59.7538 97.037 59.6407 96.9939 62.6206C96.9508 65.6006 92.0823 73.1663 92.0823 73.1663C92.0823 73.1663 90.4325 75.4619 91.8505 76.9707C93.2684 78.4796 95.5652 77.1108 95.5652 77.1108C95.5652 77.1108 102.402 74.9554 106.623 68.4404C110.845 61.9255 109.653 58.4444 109.653 58.4444C109.653 58.4444 110.203 59.7754 104.79 43.8141C99.3769 27.8527 113.6 51.0619 113.6 51.0619C113.6 51.0619 118.279 56.2458 116.996 65.6922C115.713 75.1386 110.893 79.8645 110.893 79.8645C110.893 79.8645 64.8231 105.272 62.2083 114.169H62.2136Z" fill="white"/>
        <path d="M55.0053 114.169C55.0053 114.169 35.3211 63.8115 22.1066 59.7538C22.1066 59.7538 20.1819 59.6407 20.225 62.6206C20.2682 65.6006 25.1366 73.1663 25.1366 73.1663C25.1366 73.1663 26.7864 75.4619 25.3685 76.9707C23.9505 78.4796 21.6538 77.1108 21.6538 77.1108C21.6538 77.1108 14.8174 74.9554 10.5959 68.4404C6.37438 61.9255 7.56589 58.4444 7.56589 58.4444C7.56589 58.4444 7.01597 59.7754 12.429 43.8141C17.842 27.8527 3.61935 51.0619 3.61935 51.0619C3.61935 51.0619 -1.06043 56.2458 0.222736 65.6922C1.5059 75.1386 6.32586 79.8645 6.32586 79.8645C6.32586 79.8645 52.3958 105.272 55.0107 114.169H55.0053Z" fill="white"/>
    </g>
    <defs>
        <clipPath id="clip0_20_534">
            <rect width="117" height="117" fill="white"/>
        </clipPath>
    </defs>
</svg>