<svg xmlns="http://www.w3.org/2000/svg" width="84" height="84" viewBox="0 0 84 84" fill="none">
    <path opacity="0.5" d="M68.4268 20.5183V36.938H50.8176V55.4564H33.081V46.066C33.081 46.066 32.7529 40.4835 40.1756 38.7088C47.5984 36.938 51.3464 27.6286 51.3464 27.6286C51.3464 27.6286 52.1338 21.3748 58.1785 20.5183H68.4268Z" fill="#48878E"/>
    <path d="M50.2928 2V20.5184C50.2928 20.5184 49.9647 35.3948 35.841 36.938H14.947V20.5184H33.0812V2H50.2928Z" fill="#035D67"/>
    <path d="M44.5412 81.5904C44.5412 81.5904 58.634 45.5374 68.0947 42.6323C68.0947 42.6323 69.4727 42.5513 69.4419 44.6848C69.411 46.8183 65.9254 52.2349 65.9254 52.2349C65.9254 52.2349 64.7443 53.8784 65.7595 54.9587C66.7746 56.0389 68.419 55.059 68.419 55.059C68.419 55.059 73.3134 53.5158 76.3358 48.8514C79.3581 44.1871 78.5051 41.6948 78.5051 41.6948C78.5051 41.6948 78.8988 42.6478 75.0234 31.2204C71.148 19.793 81.3306 36.4094 81.3306 36.4094C81.3306 36.4094 84.681 40.1208 83.7623 46.8839C82.8437 53.6469 79.3929 57.0304 79.3929 57.0304C79.3929 57.0304 46.4094 75.2209 44.5374 81.5904H44.5412Z" fill="#035D67"/>
    <path d="M39.3806 81.5904C39.3806 81.5904 25.2879 45.5374 15.8271 42.6323C15.8271 42.6323 14.4491 42.5513 14.4799 44.6848C14.5108 46.8183 17.9964 52.2349 17.9964 52.2349C17.9964 52.2349 19.1775 53.8784 18.1624 54.9587C17.1472 56.0389 15.5028 55.059 15.5028 55.059C15.5028 55.059 10.6084 53.5158 7.58605 48.8514C4.56369 44.1871 5.41674 41.6948 5.41674 41.6948C5.41674 41.6948 5.02303 42.6478 8.89844 31.2204C12.7738 19.793 2.59125 36.4094 2.59125 36.4094C2.59125 36.4094 -0.759207 40.1208 0.159466 46.8839C1.07814 53.6469 4.52895 57.0304 4.52895 57.0304C4.52895 57.0304 37.5124 75.2209 39.3845 81.5904H39.3806Z" fill="#035D67"/>
</svg>