<svg xmlns="http://www.w3.org/2000/svg" width="115" height="98" viewBox="0 0 115 98" fill="none">
    <path d="M39.5114 32.6354C38.9549 30.9377 38.2532 28.1513 37.9567 24.9486C35.6813 23.507 32.5951 22.5657 28.4516 22.4274C28.3667 22.4153 28.2823 22.4175 28.1983 22.4199C8.98534 23.0612 12.3434 40.7479 14.0248 45.8782C13.3958 46.2656 12.2108 48.6967 12.7469 50.8298C13.5442 54.0021 16.3801 55.2402 16.3801 55.2402C16.3801 55.2402 20.8167 61.0981 20.8167 64.5048C20.8167 67.9116 20.8167 69.2351 19.6277 72.0772C18.9084 73.7968 10.0804 75.7231 3 80.6877V95.081L62.4206 95.0847C62.4195 95.0662 62.4183 95.0477 62.4172 95.0292L112 95.032V81.044C104.833 75.7781 95.5473 73.7946 94.8087 72.029C93.6198 69.1869 93.6198 67.8634 93.6198 64.4567C93.6198 61.05 98.0564 55.1921 98.0564 55.1921C98.0564 55.1921 100.892 53.954 101.69 50.7817C102.226 48.6486 101.041 46.2174 100.412 45.8301C102.093 40.6998 105.451 23.013 86.3578 22.3756C86.2729 22.3635 86.1885 22.3657 86.1045 22.3681C82.2554 22.4966 79.3121 23.3092 77.0798 24.568C76.8031 27.9318 76.0673 30.8745 75.4886 32.6401M39.5114 32.6354C38.7168 33.1247 37.2199 36.1958 37.8971 38.8904C38.9042 42.8977 42.4866 44.4617 42.4866 44.4617M39.5114 32.6354C37.3874 26.1547 33.1458 3.81245 57.4159 3.00244C57.522 2.99931 57.6287 2.99659 57.7359 3.01181C81.8549 3.81707 77.6126 26.1593 75.4886 32.6401M42.4866 44.4617C42.4866 44.4617 42.6034 44.6159 42.8034 44.8929C42.7016 45.2594 42.6008 45.5908 42.5054 45.8819C43.1344 46.2692 44.3194 48.7004 43.7833 50.8335C42.986 54.0058 40.1501 55.2439 40.1501 55.2439C40.1501 55.2439 35.7135 61.1018 35.7135 64.5085C35.7135 67.3487 35.7135 68.7409 36.4025 70.7723C27.2449 74.7534 15.1463 81.3947 14.3542 94.7893M42.4866 44.4617C42.4866 44.4617 48.0913 51.8615 48.0913 56.1649C48.0913 60.4683 48.0913 62.1402 46.5894 65.7304C45.0875 69.3206 15.6058 73.6242 14.3542 94.7893M14.3542 94.7893L100.646 94.7939M100.646 94.7939C99.8389 81.149 87.2991 74.5122 78.0874 70.5565C78.7229 68.6106 78.7229 67.2179 78.7229 64.4531C78.7229 61.0463 74.2863 55.1884 74.2863 55.1884C74.2863 55.1884 71.4504 53.9503 70.6531 50.778C70.117 48.6449 71.302 46.2138 71.931 45.8265C71.8913 45.7054 71.8507 45.5773 71.8095 45.4426C72.2381 44.8298 72.5134 44.4663 72.5134 44.4663M100.646 94.7939C99.3942 73.6288 69.9131 69.3252 68.4112 65.735C66.9093 62.1449 66.9093 60.473 66.9093 56.1695C66.9093 51.8661 72.5134 44.4663 72.5134 44.4663M72.5134 44.4663C72.5134 44.4663 76.0958 42.9023 77.1029 38.895C77.7801 36.2004 76.2832 33.1294 75.4886 32.6401" stroke="#005963" stroke-width="4.36" stroke-linecap="round" stroke-linejoin="round"/>
</svg>